<svg width="184" height="164" viewBox="0 0 184 164" fill="none" xmlns="http://www.w3.org/2000/svg">
<path d="M92 65.9349C100.755 65.9349 107.895 73.0749 107.895 81.9999C107.895 90.4999 100.755 97.7249 92 97.7249C83.245 97.7249 76.105 90.4999 76.105 81.9999C76.105 73.0749 83.245 65.9349 92 65.9349ZM52.645 150C58 153.23 69.73 148.3 83.245 135.55C78.825 130.535 74.49 125.095 70.41 119.4C63.5603 118.744 56.7506 117.723 50.01 116.34C45.675 134.53 47.29 147.025 52.645 150ZM58.68 101.21L56.215 96.8749C55.28 99.3399 54.345 101.805 53.75 104.185C56.045 104.695 58.595 105.12 61.23 105.545L58.68 101.21ZM114.27 94.7499L121.155 81.9999L114.27 69.2499C111.72 64.7449 109 60.7499 106.535 56.7549C101.945 56.4999 97.1 56.4999 92 56.4999C86.9 56.4999 82.055 56.4999 77.465 56.7549C75 60.7499 72.28 64.7449 69.73 69.2499L62.845 81.9999L69.73 94.7499C72.28 99.2549 75 103.25 77.465 107.245C82.055 107.5 86.9 107.5 92 107.5C97.1 107.5 101.945 107.5 106.535 107.245C109 103.25 111.72 99.2549 114.27 94.7499ZM92 37.6299C90.385 39.4999 88.685 41.4549 86.985 43.7499H97.015C95.315 41.4549 93.615 39.4999 92 37.6299ZM92 126.37C93.615 124.5 95.315 122.545 97.015 120.25H86.985C88.685 122.545 90.385 124.5 92 126.37ZM131.27 13.9999C126 10.7699 114.27 15.6999 100.755 28.4499C105.175 33.4649 109.51 38.9049 113.59 44.5999C120.56 45.2799 127.445 46.2999 133.99 47.6599C138.325 29.4699 136.71 16.9749 131.27 13.9999ZM125.32 62.7899L127.785 67.1249C128.72 64.6599 129.655 62.1949 130.25 59.8149C127.955 59.3049 125.405 58.8799 122.77 58.4549L125.32 62.7899ZM137.645 2.86491C150.14 10.0049 151.5 28.7899 146.23 50.7199C167.82 57.0949 183.375 67.6349 183.375 81.9999C183.375 96.3649 167.82 106.905 146.23 113.28C151.5 135.21 150.14 153.995 137.645 161.135C125.235 168.275 108.32 160.115 92 144.56C75.68 160.115 58.765 168.275 46.27 161.135C33.86 153.995 32.5 135.21 37.77 113.28C16.18 106.905 0.625 96.3649 0.625 81.9999C0.625 67.6349 16.18 57.0949 37.77 50.7199C32.5 28.7899 33.86 10.0049 46.27 2.86491C58.765 -4.27509 75.68 3.88491 92 19.4399C108.32 3.88491 125.235 -4.27509 137.645 2.86491ZM135.18 81.9999C138.07 88.3749 140.62 94.7499 142.745 101.21C160.595 95.8549 170.625 88.2049 170.625 81.9999C170.625 75.7949 160.595 68.1449 142.745 62.7899C140.62 69.2499 138.07 75.6249 135.18 81.9999ZM48.82 81.9999C45.93 75.6249 43.38 69.2499 41.255 62.7899C23.405 68.1449 13.375 75.7949 13.375 81.9999C13.375 88.2049 23.405 95.8549 41.255 101.21C43.38 94.7499 45.93 88.3749 48.82 81.9999ZM125.32 101.21L122.77 105.545C125.405 105.12 127.955 104.695 130.25 104.185C129.655 101.805 128.72 99.3399 127.785 96.8749L125.32 101.21ZM100.755 135.55C114.27 148.3 126 153.23 131.27 150C136.71 147.025 138.325 134.53 133.99 116.34C127.445 117.7 120.56 118.72 113.59 119.4C109.51 125.095 105.175 130.535 100.755 135.55ZM58.68 62.7899L61.23 58.4549C58.595 58.8799 56.045 59.3049 53.75 59.8149C54.345 62.1949 55.28 64.6599 56.215 67.1249L58.68 62.7899ZM83.245 28.4499C69.73 15.6999 58 10.7699 52.645 13.9999C47.29 16.9749 45.675 29.4699 50.01 47.6599C56.7506 46.2769 63.5603 45.2554 70.41 44.5999C74.49 38.9049 78.825 33.4649 83.245 28.4499Z" fill="#d29e17"/>
</svg>
