<svg width="150" height="173" viewBox="0 0 150 173" fill="none" xmlns="http://www.w3.org/2000/svg">
<path d="M110.814 24.9287C99.8668 34.3359 78.6691 36.9099 47.2219 48.9903C39.1608 52.0597 17.6651 61.2685 12.49 70.8735C29.9056 60.8728 36.3744 74.6361 37.7673 88.7957C39.0606 102.064 45.7288 108.996 62.8459 108.599C80.4608 108.204 85.8347 118.402 90.7107 130.384C100.165 84.5377 115.292 75.6264 125.044 67.8041C145.744 51.0695 120.268 21.5618 110.814 24.9287Z" fill="#d29e17"/>
<path d="M110.814 24.9287C84.541 34.0383 58.5664 36.3158 28.0148 55.0304C20.7501 59.4863 5.42421 69.5857 2.43848 88.8948C13.584 76.6161 39.3593 61.1698 70.9066 51.367C86.8295 46.4157 98.4734 43.1484 112.605 37.7023C111.61 31.3646 111.61 28.8892 110.814 24.9287Z" fill="#d29e17"/>
<path d="M144.351 79.1908C144.351 79.1908 142.46 85.6271 138.678 87.7068C138.678 87.7068 135.892 88.6971 130.319 85.6276C128.727 84.7365 127.533 81.6671 127.632 80.6764C127.732 78.2997 129.224 77.2107 129.224 77.2107C129.224 77.2107 130.817 74.537 132.707 74.6362C134.599 74.7349 137.783 75.0319 138.779 74.1408C139.674 73.1506 144.55 75.923 144.351 79.1908Z" fill="#d29e17"/>
<path d="M103.748 16.9081C103.748 16.9081 103.35 21.9585 102.653 25.1267C102.554 25.7212 99.5685 26.0177 97.3787 26.9093C101.558 38.7913 126.737 38.6921 130.021 32.8503C128.429 31.7614 125.244 30.0779 123.751 29.4839C122.258 28.8893 122.358 28.9885 122.258 26.2161C122.159 23.4432 121.96 18.2946 121.76 16.9081C121.562 15.5217 106.136 15.5217 103.748 16.9081Z" fill="#d29e17"/>
<path d="M104.743 16.9081C104.743 16.9081 104.743 19.7797 104.444 22.5521C104.345 23.8394 104.246 24.6313 104.047 25.6215C103.947 26.2161 107.43 28.5918 108.425 33.8401C113.202 44.4348 124.249 39.187 128.827 34.1371C127.234 33.0477 124.647 31.5625 121.662 30.3744C120.169 29.7799 120.865 28.4931 120.766 25.7207C120.666 22.9483 120.268 18.8881 120.069 17.403C119.87 15.9179 107.132 15.5217 104.743 16.9081Z" fill="#d29e17"/>
<path d="M103.748 16.9081C103.748 16.9081 103.648 18.6908 103.35 20.7699C104.643 22.0567 106.335 23.8394 107.629 24.9288C108.525 25.7212 110.714 25.622 112.705 25.622C114.496 25.622 116.088 25.8199 116.785 25.4242C118.378 24.6318 120.666 22.6518 121.96 21.1661C121.861 19.384 121.761 17.7005 121.662 16.9081C121.561 15.5217 106.136 15.5217 103.748 16.9081Z" fill="#d29e17"/>
<path d="M112.804 24.4334C111.609 24.4334 110.216 24.3347 109.122 24.1364C108.624 24.0377 108.126 23.7407 107.728 23.5423C107.031 23.047 106.335 22.4534 105.539 21.8589C103.946 20.6708 103.847 19.9775 103.847 19.681C104.544 13.4425 103.648 8.19468 103.648 8.19468C103.648 8.19468 102.951 5.52096 106.733 4.82774C110.514 4.13451 112.803 4.03583 112.803 4.03583C112.803 4.03583 115.192 4.03583 118.874 4.82774C122.656 5.52096 121.959 8.19468 121.959 8.19468C121.959 8.19468 121.063 13.4425 121.76 19.681C121.76 19.9775 121.661 20.6708 120.068 21.8589C118.675 22.8491 117.58 23.938 116.486 24.1364C115.391 24.3347 113.998 24.4334 112.804 24.4334Z" fill="#d29e17"/>
<path d="M112.804 1.4613C106.236 1.4613 104.942 3.24346 103.051 5.22396C102.653 5.71884 102.951 8.68959 103.648 15.0268H104.544C104.544 15.0268 103.947 13.2442 104.046 11.165C104.146 9.08578 104.544 9.18496 104.245 8.68959C103.847 8.09505 103.051 7.1048 104.843 6.11504C106.634 5.12479 109.42 6.90695 112.804 7.00612C116.188 6.90695 119.074 5.12479 120.865 6.11504C122.656 7.1048 121.86 8.09505 121.462 8.68959C121.064 9.28364 121.561 9.0853 121.661 11.165C121.76 13.2442 121.163 15.0268 121.163 15.0268H122.059C122.656 8.68959 123.054 5.91718 122.756 5.42181C121.064 3.24346 119.372 1.55999 112.804 1.4613Z" fill="#d29e17"/>
<path d="M144.351 79.4878C144.351 79.4878 142.46 85.528 138.778 87.6071C137.982 87.2114 138.082 86.6174 137.385 85.7258C137.186 85.4293 136.489 85.2305 136.191 84.9339C135.892 84.6369 135.992 84.1415 135.494 83.7458C135.096 83.3496 134.797 83.6466 134.399 83.3496C134.001 82.9539 133.901 82.4585 133.603 82.162C133.404 81.9636 132.608 81.865 132.409 81.6666C131.911 81.1713 127.533 80.2802 127.732 79.2899C128.13 77.8043 128.926 76.7154 128.926 76.7154C128.926 76.7154 130.817 73.943 132.707 74.0417C134.598 74.1408 136.39 74.537 137.385 73.6459C138.48 72.6552 144.65 76.3192 144.351 79.4878Z" fill="#d29e17"/>
<path d="M131.414 35.7219C131.414 35.7219 137.683 34.2363 141.963 38.2964C146.242 42.4553 145.943 47.6039 144.65 50.7725C145.744 52.0598 147.735 55.6241 146.242 59.8821C152.81 65.4269 149.924 73.943 144.053 79.5869C144.053 79.5869 142.659 74.4378 137.087 74.1408C137.285 72.1608 131.912 70.576 134.399 65.4269C130.618 64.5358 130.717 61.9613 130.12 58.7932C129.623 55.6241 131.414 35.7219 131.414 35.7219Z" fill="#d29e17"/>
<path d="M129.125 38.4943C129.125 38.4943 136.389 34.8308 140.669 38.9896C144.948 43.1485 143.753 47.7031 142.46 50.8717C143.554 52.1585 146.142 55.8229 144.55 60.1791C144.251 61.1694 142.062 61.1694 140.469 63.7439C144.45 61.4659 146.938 62.0605 147.833 64.9315C149.227 69.3874 146.141 74.7344 143.455 77.7051C143.455 77.606 143.355 77.5068 143.355 77.4081C142.957 78.8937 142.46 81.7648 139.474 84.9334C137.981 86.5177 136.787 86.3199 135.095 85.9237C133.105 85.4283 132.408 84.5367 129.622 83.0521C128.03 82.161 128.925 81.0716 128.925 80.1805C128.925 79.9827 129.124 79.6852 129.423 79.2894C129.622 78.7941 130.219 78.0026 131.115 77.1111C131.115 77.1111 132.408 75.3289 134.3 75.4276C136.191 75.5268 138.181 75.1311 138.678 74.6357C138.678 71.1701 134.698 71.0709 136.091 65.1299C136.191 64.8329 136.688 64.3375 138.28 64.1396C135.892 63.6443 134.797 63.5451 133.105 61.9613C131.911 60.8724 131.015 59.4859 130.716 57.7038C130.12 54.6343 129.125 38.4943 129.125 38.4943Z" fill="#d29e17"/>
<path d="M108.127 32.2562C107.529 31.4639 104.445 27.5033 98.5727 25.919C96.8808 25.4237 95.7864 26.8101 94.0949 27.8004C93.597 27.5033 91.4077 26.5131 90.2136 27.2058C89.0195 27.8986 88.2236 28.5923 87.029 29.0872C86.4314 28.7901 84.8396 28.7901 83.5459 29.285C82.2521 29.6812 80.2616 30.5723 78.3708 33.1468C77.1767 37.4049 99.4683 34.2358 99.4683 34.2358L108.127 32.2562Z" fill="#d29e17"/>
<path d="M108.326 32.2562C105.141 31.1668 105.639 27.5033 98.5727 26.9093C97.1792 26.8101 96.2837 27.899 95.2884 28.5923C95.7863 29.0876 96.2837 29.8795 96.5822 30.6715C95.6866 29.6817 94.0943 28.3939 92.5015 28.0969C91.0089 27.8004 90.0137 28.8893 88.4214 29.6817C88.7194 29.9782 89.0184 30.4736 89.4161 31.0681C88.0227 30.1771 87.0279 29.88 85.1371 30.5728C83.8433 30.9685 81.3555 32.0579 79.4647 34.7316C78.2706 38.9896 99.5674 34.2363 99.5674 34.2363L108.326 32.2562Z" fill="#d29e17"/>
<path d="M127.035 33.8406C127.035 33.8406 127.035 32.7511 126.935 31.7614C126.935 31.5635 126.14 31.0681 126.14 30.8703L125.941 30.672C125.941 30.672 127.533 29.7809 128.727 30.2762C130.02 30.672 130.717 32.3554 130.717 32.3554C133.006 31.5635 133.205 32.4546 134.3 33.6427C136.689 33.1473 136.987 34.0384 138.48 36.2172C138.48 36.2172 136.689 35.9202 133.205 36.5138C129.821 37.0087 127.035 33.7414 127.035 33.8406Z" fill="#d29e17"/>
<path d="M126.637 33.3452C126.637 33.3452 127.234 32.8498 127.034 32.7506C128.129 32.1566 129.622 31.4638 130.319 33.3452C132.608 32.5528 132.906 33.6422 134.001 34.8308C136.787 33.5435 136.986 35.1273 137.185 35.8205C136.29 35.8205 134.996 35.9197 133.205 36.1176C129.821 36.6129 126.537 33.246 126.637 33.3452Z" fill="#d29e17"/>
<path d="M92.8009 30.8698C92.8009 30.8698 98.4734 32.8498 103.25 32.5528C108.027 32.1571 116.187 31.7609 120.566 34.3354C120.566 34.3354 125.045 32.7507 129.224 33.8401C133.405 34.929 141.067 42.0586 138.779 49.5839C138.579 50.0793 137.285 50.8712 135.793 51.3666C135.793 51.3666 136.589 54.733 135.196 57.5054C133.802 60.1791 130.717 65.3282 130.618 72.4574C130.519 73.6455 130.32 76.1208 130.12 77.3089C122.358 77.0124 110.416 74.1403 98.6727 74.3387C98.7719 73.0519 98.8716 72.2595 98.9712 70.9722H99.2693C98.6722 67.7045 98.4734 66.021 97.8758 63.5456C94.0942 61.1694 90.1132 58.397 86.7303 53.1487C83.446 47.9004 92.8009 30.8698 92.8009 30.8698Z" fill="#d29e17"/>
<path d="M131.215 84.3398C131.215 84.3398 137.385 106.322 130.121 115.531C130.121 115.531 131.215 119.789 128.727 124.344C128.329 126.324 127.831 128.106 127.533 130.086C126.239 138.305 124.049 141.77 123.452 154.94L117.481 154.841C117.481 154.841 116.784 145.335 114.695 140.285C113.501 137.414 108.823 133.552 109.023 129.691C109.221 126.72 109.818 124.244 114.894 120.283C115.292 114.541 109.52 109.094 110.416 87.7063L131.215 84.3398Z" fill="#d29e17"/>
<path d="M129.424 83.4482C131.016 93.5481 134.698 108.5 128.03 115.827C128.328 117.213 128.528 119.194 128.129 121.471C127.931 122.659 127.532 123.946 127.035 125.332C126.04 127.709 125.642 131.175 125.343 133.254C124.049 141.472 124.049 141.869 123.452 155.038L117.481 154.939C117.481 154.939 116.784 145.433 114.694 140.384C113.501 137.512 111.012 135.037 110.814 131.175C110.615 128.205 112.704 122.264 117.681 122.462C117.382 110.481 111.809 112.857 110.316 87.9041L129.424 83.4482Z" fill="#d29e17"/>
<path d="M92.8011 30.8698C92.8011 30.8698 94.9904 31.563 97.3786 31.7609C99.7673 31.9587 102.355 31.7609 104.643 31.6617C109.42 31.266 116.188 30.7706 120.666 33.3452C120.666 33.3452 123.154 32.5528 125.841 32.7507C127.035 32.8498 128.23 33.8401 129.623 34.2363C134.001 35.3252 138.181 42.5535 136.29 49.089C136.091 49.5844 134.698 49.089 133.105 49.5844C133.403 50.9709 133.603 54.1395 132.01 57.5059C130.319 60.8729 128.13 65.2296 128.527 73.5473C118.078 73.0519 113.401 72.3592 103.051 71.8638C102.155 68.1998 101.557 64.5363 101.458 62.655C102.852 61.9618 103.647 61.3682 104.743 60.1796C101.757 60.675 100.563 60.4767 98.7711 59.4864C96.9799 58.4962 93.7953 55.3276 92.203 53.2484C92.0042 53.05 90.9097 56.3173 88.4219 56.417C87.5258 55.1297 91.3075 51.4657 90.6107 50.0798C88.1234 45.0294 92.8011 30.8698 92.8011 30.8698Z" fill="#d29e17"/>
<path d="M130.219 75.2298C130.219 75.2298 130.418 78.7946 130.418 79.6856C130.418 80.6759 131.214 83.6461 131.314 85.0326C130.219 86.9139 125.442 91.1719 116.784 92.7562C108.226 94.5384 96.8806 81.1713 96.8806 81.1713C97.1791 79.884 98.1744 76.1208 98.8711 74.1408C98.9708 73.943 99.1696 73.4476 99.1696 73.2497C100.066 71.9625 130.219 75.2298 130.219 75.2298Z" fill="#d29e17"/>
<path d="M128.03 75.5272C128.03 78.0026 128.428 79.7852 128.727 81.3695C129.224 84.2411 130.02 86.1224 130.02 88.0038C130.02 93.7464 122.457 92.7562 116.087 92.9545C107.529 94.7372 100.264 81.3695 100.264 81.3695C100.861 79.092 101.259 76.518 102.155 74.3391C102.254 73.151 102.453 71.6659 102.553 70.9727C114.694 70.9727 123.253 71.6659 128.229 72.1603C128.428 73.2497 128.229 75.131 128.03 75.5272Z" fill="#d29e17"/>
<path d="M118.476 88.3003C118.476 88.3003 113.202 76.6162 97.3779 80.0823C93.5968 90.677 88.5209 102.857 91.8052 116.026C88.5209 120.482 84.7393 122.958 84.7393 131.176C84.7393 139.394 85.1375 140.781 85.1375 140.781L96.7809 141.375C96.7809 141.375 100.563 136.524 102.055 131.275C102.453 129.79 102.852 127.116 102.553 124.047C102.951 123.453 104.643 122.067 104.842 119.393C104.842 119.393 110.514 116.423 113.799 109.195C116.884 102.658 116.088 97.0142 118.476 88.3003Z" fill="#d29e17"/>
<path d="M118.476 88.3004C118.178 87.2114 114.197 76.5175 99.4684 79.6856C90.8107 102.658 93.9952 112.164 95.2885 116.322C89.4167 123.749 86.73 125.333 87.9246 140.384H95.6872C99.2695 134.74 100.066 132.66 100.265 125.234C100.265 124.937 99.1703 125.828 98.3739 126.818C98.9715 123.749 100.663 123.155 101.957 121.274C102.554 120.481 103.051 119.293 103.051 117.709C110.017 113.055 112.605 107.213 114.098 101.173C115.292 97.0143 116.685 90.1817 118.476 88.3004Z" fill="#d29e17"/>
<path d="M93.8953 72.3586C93.8953 72.3586 96.5825 72.4573 98.9712 73.2497C101.26 74.0416 101.26 74.5365 102.156 75.5272C103.051 76.518 105.241 78.0026 104.843 79.4878C104.644 80.2801 104.146 80.478 103.45 81.1712C103.151 81.4683 100.961 83.8445 100.464 84.1415C100.165 84.3393 99.7671 84.6369 99.4686 84.8347C99.1705 85.0326 98.275 85.6271 97.976 85.825C96.9807 86.3203 96.284 86.6174 95.1896 86.5182C95.1896 86.5182 92.7017 86.419 91.1089 84.736C91.1089 84.736 90.9101 83.9436 91.3083 83.5479C91.3083 83.5479 89.2181 81.7653 88.621 80.5772C88.0235 79.3896 88.0235 77.7061 88.4222 76.815C88.621 75.923 92.5019 73.4476 93.8953 72.3586Z" fill="#d29e17"/>
<path d="M96.3838 168.704L96.0853 171.179C96.0853 171.179 95.1897 172.268 88.522 172.17C81.7547 172.07 79.9635 169.991 79.3665 168.902L78.9688 166.327C78.9688 166.327 80.2625 164.446 80.561 164.446C82.7504 164.644 90.2145 167.615 95.3895 168.406C95.886 168.406 95.9851 168.604 96.3838 168.704Z" fill="#d29e17"/>
<path d="M110.814 163.654C110.814 164.743 110.714 164.743 110.714 165.832C111.908 166.723 114.894 167.218 120.566 167.119C128.826 166.921 136.489 169.595 145.844 168.01L145.943 166.228L145.048 166.129L111.908 163.455L110.814 163.654Z" fill="#d29e17"/>
<path d="M118.078 167.119C118.875 167.119 119.671 167.119 120.566 167.119C125.941 166.921 131.016 168.109 136.489 168.406C139.375 168.307 142.958 167.614 142.659 165.535L114.396 163.158C112.704 165.04 113.998 166.624 118.078 167.119Z" fill="#d29e17"/>
<path d="M85.6355 125.432C86.5311 126.027 92.6017 129.591 102.454 129.096C102.255 130.977 102.354 134.641 97.9757 141.077C95.7863 144.246 93.895 149.791 93.4973 156.821C93.597 158.406 94.4926 159.792 93.2985 161.871C93.6962 163.158 95.2885 165.733 96.0849 167.317C96.8808 168.902 97.2789 170.684 92.0042 170.783C86.6303 170.882 77.9721 170.288 79.1667 166.129C79.7642 163.951 81.4557 161.674 81.655 160.782C81.8539 159.891 81.8539 157.218 83.5454 155.435C85.0385 150.484 84.5406 145.731 84.2426 141.276C83.7447 136.621 83.645 129.195 85.6355 125.432Z" fill="#d29e17"/>
<path d="M94.8907 44.7323C101.957 35.3252 95.9851 27.8004 84.6407 30.0774C80.0627 30.9685 75.4851 34.1376 75.1861 39.8802C73.6935 40.0781 70.3101 40.2759 68.6181 46.4153C67.3248 51.1682 66.6281 52.0593 64.3386 54.4355C62.846 56.119 64.4383 59.5846 65.5327 62.0605C69.2152 70.576 80.5601 71.3679 88.223 77.8043C90.8105 77.1111 93.4973 74.24 94.2936 72.3587C87.8248 64.7337 89.2178 61.7634 86.6302 57.8029C89.4171 56.8122 95.7863 52.9508 94.8907 44.7323Z" fill="#d29e17"/>
<path d="M93.4973 44.1383C93.895 43.5437 94.5917 42.2569 94.8908 41.7616C94.9904 41.6624 96.0849 43.5437 96.1845 43.445C98.8712 39.0879 99.568 32.7506 96.4826 32.1566C95.7858 32.0574 94.4926 31.7609 93.3976 31.3642C91.4076 30.671 89.6165 30.671 86.4314 31.2655C82.0527 32.0574 77.6741 35.226 77.6741 39.7811C77.6741 40.0781 80.7585 40.9692 81.6545 44.6332C80.1614 42.5535 77.5739 40.276 74.489 42.2565C71.2047 44.3356 72.8967 49.0885 68.518 54.0393C67.0249 55.7228 67.2242 57.7033 68.816 61.6638C71.4036 67.9023 83.6445 71.2688 90.3122 77.2098C91.9045 76.5165 92.999 74.9322 93.7954 73.7441C89.317 69.0904 87.5254 64.7332 86.2321 61.5646C84.6398 57.9011 82.8482 55.8219 79.365 53.0486C81.1567 53.7418 82.5501 54.435 83.3455 55.0291C84.2411 55.6231 85.5349 55.7223 86.7295 55.3261C91.0094 53.8419 93.2985 47.9004 93.4973 44.1383Z" fill="#d29e17"/>
<path d="M136.788 45.7225C136.489 49.4852 133.703 47.6039 132.21 46.9106C129.224 45.6234 126.239 44.7323 122.756 44.7323C119.272 44.7323 114.794 45.0293 110.913 46.0196C105.539 47.5047 103.947 47.406 101.558 46.2174C99.1702 44.9301 94.9908 41.7615 94.9908 41.7615C94.9908 41.7615 94.8911 42.7518 95.8864 44.0391C97.1797 45.6234 100.066 47.6039 103.947 48.8906C105.838 49.4852 107.331 49.0885 109.023 48.6928C117.88 46.5144 127.234 46.1182 135.096 50.8711C135.494 51.069 136.888 50.4749 137.485 49.5839C138.28 48.2971 136.788 45.7225 136.788 45.7225Z" fill="#d29e17"/>
<path d="M91.5073 83.4482C92.3032 83.9436 93.2985 84.2406 94.3929 85.1317C94.3929 85.1317 93.4973 85.1317 93.0996 84.736C92.6018 84.439 91.6065 83.5479 91.5073 83.4482Z" fill="#d29e17"/>
<path d="M120.268 4.92692C119.969 4.03584 117.779 2.45105 112.704 2.45105C107.231 2.45105 105.639 4.13452 105.539 5.0256C105.539 5.32263 105.141 8.49172 105.042 9.77851C105.042 9.77851 105.042 11.3628 105.141 13.739C105.24 15.3233 105.639 16.2144 105.837 18.2941C106.036 20.4719 106.634 21.8584 107.728 23.641C108.226 23.9376 108.624 24.2351 109.122 24.3342C111.112 24.73 114.595 24.8291 116.486 24.3342C117.581 24.0372 118.974 22.1559 119.272 20.4724C119.67 18.3932 120.068 16.9076 120.168 15.6208C120.367 14.334 120.467 11.462 120.566 10.6696C120.865 8.49172 120.367 5.12477 120.268 4.92692Z" fill="#d29e17"/>
<path d="M109.818 127.314C109.818 127.314 115.093 129.591 128.13 127.611C128.13 127.611 124.448 146.028 126.14 155.237C126.14 155.237 127.831 157.613 140.371 162.168C140.371 162.168 145.944 163.554 145.745 166.327C145.745 166.327 145.944 166.921 139.177 166.723C132.41 166.525 126.04 165.337 121.562 165.337C117.083 165.337 112.307 165.534 111.511 164.248C110.615 163.06 111.71 159.99 113.003 158.207C114.397 156.326 113.999 154.939 113.899 151.573C113.6 142.761 106.832 133.651 109.818 127.314Z" fill="#d29e17"/>
<path d="M108.723 128.997C108.027 129.988 108.823 133.75 109.818 137.414C110.813 141.077 113.003 143.256 113.5 149.296C113.998 155.237 114.097 156.029 112.405 159.494C110.713 162.959 110.216 166.128 116.087 166.228C121.959 166.327 125.144 166.128 131.115 167.02C137.086 167.911 139.176 168.208 142.46 167.713C145.744 167.218 146.441 166.128 145.048 165.139C143.654 164.148 137.882 163.06 135.394 161.079C133.006 159.296 126.239 156.326 126.14 155.534C125.841 152.86 125.741 143.156 126.239 139.988C126.737 136.819 127.433 132.264 127.632 131.076C127.831 129.888 128.826 128.699 127.134 129.096C125.443 129.491 119.074 130.383 114.297 130.086C109.52 129.789 109.022 128.7 108.723 128.997Z" fill="#d29e17"/>
<path opacity="0.3" d="M112.107 159.594C113.799 160.386 116.287 160.98 118.178 160.98C118.178 160.98 117.481 164.248 118.576 166.228C119.67 168.209 110.614 167.021 110.614 167.021L110.217 159.99L112.107 159.594Z" fill="#d29e17"/>
<path opacity="0.3" d="M138.48 168.11C140.072 167.614 141.167 165.832 139.873 164.149C138.48 162.466 137.285 162.169 139.077 162.07C140.868 161.971 147.436 165.931 147.436 165.931L144.052 169.001L138.48 168.11Z" fill="#d29e17"/>
<path opacity="0.3" d="M108.425 132.859C110.714 133.651 114.197 133.849 117.183 133.75C120.168 133.651 124.646 133.254 127.533 132.265C130.419 131.274 129.224 133.354 129.224 133.354L127.632 134.839C127.632 134.839 123.85 136.324 117.681 136.226C110.416 136.126 108.226 135.334 108.226 135.334L108.425 132.859Z" fill="#d29e17"/>
<path opacity="0.3" d="M108.624 137.81C110.913 138.602 114.396 138.8 117.382 138.701C120.367 138.602 124.348 138.602 127.234 137.513C128.428 137.117 127.732 138.8 127.732 138.8L127.234 139.691C127.234 139.691 123.353 141.078 117.282 140.978C110.017 140.879 108.723 140.285 108.723 140.285L108.624 137.81Z" fill="#d29e17"/>
<path d="M109.818 127.314C109.818 127.314 118.476 130.383 128.23 128.304C128.23 128.304 124.448 146.028 126.14 155.138C126.14 155.138 127.831 157.514 140.371 162.069C140.371 162.069 145.944 163.456 145.745 166.228C145.745 166.228 145.944 166.823 139.177 166.624C132.409 166.426 126.04 165.237 121.562 165.237C117.083 165.237 112.307 165.436 111.511 164.148C110.615 162.96 111.71 159.89 113.003 158.108C114.397 156.227 113.999 154.841 113.899 151.474C113.6 142.761 106.832 133.651 109.818 127.314Z" fill="#d29e17"/>
<path d="M109.818 127.314C109.818 127.314 118.476 130.284 128.23 128.205C128.23 128.205 124.448 146.028 126.14 155.138C126.14 155.138 127.831 157.514 140.371 162.069C140.371 162.069 145.944 163.456 145.745 166.228C145.745 166.228 145.944 166.823 139.177 166.624C132.409 166.426 125.941 164.545 121.562 165.237C116.885 166.03 112.307 165.733 111.511 164.148C110.814 162.862 111.71 159.89 113.003 158.108C114.397 156.227 113.999 154.841 113.899 151.474C113.6 142.761 106.832 133.651 109.818 127.314Z" fill="#d29e17"/>
<path d="M102.056 68.3981C102.056 69.0914 109.819 72.9527 114.098 73.7451C118.377 74.537 127.334 73.7451 128.727 73.4481L128.527 74.8345C128.527 74.8345 117.879 76.4188 109.719 74.2405C101.558 72.0621 102.454 71.5667 102.454 71.5667L102.056 68.3981Z" fill="#d29e17"/>
<path d="M85.436 152.86C86.6301 153.455 90.9096 154.544 93.696 153.95C94.0937 153.851 93.696 147.117 94.7909 144.048C96.3832 139.79 98.9708 136.324 100.164 128.799C95.9845 128.403 91.2081 127.314 88.7198 126.521C85.5357 136.226 86.6306 144.543 85.436 152.86Z" fill="#d29e17"/>
<path d="M92.1041 159.099C92.8009 159.297 93.2982 160.089 93.4976 159.594C93.8953 158.703 92.8009 157.02 92.7012 155.832C92.7012 155.733 92.7012 155.832 92.7012 155.733C91.8056 154.941 85.735 154.841 86.1332 155.237C85.4365 156.524 84.342 156.327 83.9443 158.901C83.7455 160.188 85.3378 159.099 86.8299 159C84.1432 160.782 81.0583 163.06 80.5604 165.04C79.9633 167.812 80.9586 168.605 83.9443 170.09C86.5319 170.685 89.6168 170.784 92.005 170.685C94.6922 170.189 95.19 168.902 94.3937 167.12C93.1986 164.446 92.4027 160.98 92.1041 159.099Z" fill="#d29e17"/>
<path d="M93.1988 30.4736C96.4831 32.3549 101.061 31.86 102.753 31.7608C103.151 31.7608 107.132 31.0676 107.331 31.1663C107.728 31.2655 107.728 31.5625 107.728 31.5625C107.728 31.5625 106.236 32.3544 102.852 32.5523C99.6676 32.7501 95.886 32.5523 93.7963 31.5625C91.308 30.4736 93.1988 30.4736 93.1988 30.4736Z" fill="#d29e17"/>
<path d="M127.035 32.3549C127.632 32.7506 131.513 34.2363 133.205 36.0184C134.698 37.6032 133.902 37.504 133.603 37.1078C133.205 36.6125 130.12 34.5333 128.926 34.0384C127.732 33.5435 126.239 32.652 126.239 32.4541C126.239 32.2562 127.035 32.3549 127.035 32.3549Z" fill="#d29e17"/>
<path d="M92.7009 73.4476C95.5869 73.2497 98.5727 73.943 100.463 75.923C101.459 76.9132 103.051 78.0022 102.852 78.9924C102.852 79.2894 102.255 80.0818 101.758 80.6759C101.459 81.0716 100.564 81.9627 100.265 82.2602C99.8669 82.5572 98.4735 83.6466 98.175 83.8445C97.8765 84.0428 97.4783 84.5382 97.1797 84.6369C96.185 85.1323 95.0901 84.7361 94.0948 84.2412C93.1001 83.7458 94.2942 83.6466 93.1992 82.8547C90.5125 80.9734 89.0194 79.6856 90.1143 76.0221C90.2135 75.3289 91.3079 74.5365 92.7009 73.4476Z" fill="#d29e17"/>
<path d="M23.5366 75.6264C18.4607 78.0021 5.02614 88.6965 2.4386 91.8651C-0.248609 95.0337 -1.04451 90.083 1.74188 81.8644C3.93073 75.2302 9.50449 66.2193 18.8589 58.4961C24.332 54.0402 36.3741 47.6043 43.7381 43.8412C45.2312 43.0488 64.5375 34.9294 81.7542 30.8698C83.2474 30.4736 79.9631 33.3451 79.4652 34.9294C76.8777 42.4547 25.2276 74.7348 25.2276 74.7348L23.5366 75.6264Z" fill="#d29e17"/>
<path d="M96.2839 166.426C97.1795 171.773 96.3836 172.169 90.8108 172.862C85.2376 173.556 81.1574 171.476 79.6648 170.09C78.1717 168.703 77.8736 165.634 79.3663 162.862C80.2623 161.079 81.1579 160.485 81.6558 158.307C82.1531 156.227 82.5513 155.732 82.949 154.94C83.3467 154.246 83.4469 153.553 83.5461 148.702C83.6458 143.85 83.5461 134.74 84.0439 130.879C84.5418 126.918 101.759 132.661 101.759 132.661C101.759 132.661 97.6779 142.761 96.5834 145.236C95.4885 147.712 95.5882 152.464 95.5882 153.455C95.5882 154.445 95.1905 156.425 94.8915 156.524C94.5929 156.623 95.8867 159.197 95.2892 160.683C94.891 162.069 96.1847 165.634 96.2839 166.426Z" fill="#d29e17"/>
<path d="M102.852 15.0268C102.255 11.2641 102.852 3.83699 103.648 2.64937C106.136 -0.717576 119.272 -1.11329 122.059 2.84722C123.253 4.62938 123.154 8.78823 122.955 11.462C122.756 14.1352 122.059 19.8783 121.96 21.7602C121.86 23.1466 107.43 25.3245 104.246 21.5618C103.35 20.5721 102.852 15.0268 102.852 15.0268Z" fill="#d29e17"/>
<path d="M132.111 156.821C138.181 161.178 142.859 161.97 145.944 163.554C149.028 165.139 148.233 168.209 143.057 169.1C138.878 169.892 132.31 168.307 127.931 168.307C123.552 168.307 113.799 168.803 111.212 167.021C108.226 164.941 109.52 161.079 109.52 161.079C110.316 158.901 112.306 154.049 111.709 150.088C111.112 146.128 110.316 143.949 108.823 140.285C107.33 136.622 106.236 127.611 107.629 127.116C109.023 126.621 108.624 127.116 110.416 127.512C112.207 127.907 114.197 128.502 118.079 128.502C121.96 128.502 126.239 127.907 127.732 127.611C129.225 127.314 130.419 127.016 129.921 130.086C129.424 133.156 127.931 138.899 127.831 143.355C127.732 147.811 127.732 152.96 128.031 153.851C128.329 154.742 130.518 155.732 132.111 156.821Z" fill="#d29e17"/>
<path opacity="0.4" d="M67.3244 50.7725C58.3677 54.3373 35.5777 65.6257 29.1094 69.0913C34.4833 72.4578 36.9712 80.5772 37.7676 88.7957C37.8667 89.5881 37.9664 90.2813 38.0661 91.0732C38.1653 91.7664 38.2649 92.2613 38.3641 92.5588C38.3641 92.658 38.3641 92.8559 38.4638 92.9545C44.3356 77.0129 65.3335 60.1796 66.1298 58.8923C66.5275 58.2983 65.632 55.7237 67.0254 53.2488C68.8171 50.0792 72.3007 48.6928 67.3244 50.7725Z" fill="#d29e17"/>
<path opacity="0.4" d="M88.6214 125.532C93.199 116.422 93.2986 107.708 93.199 97.5091C93.199 93.2511 96.2839 87.2109 94.6921 88.8943C88.7206 95.5281 73.6937 108.005 62.8462 108.698C78.0724 108.203 84.0434 115.827 88.6214 125.532Z" fill="#d29e17"/>
<path d="M20.3516 77.5073C26.024 73.4476 55.382 57.9021 62.4479 55.7232C69.5133 53.4457 67.324 50.772 67.324 50.772C67.324 50.772 38.6627 63.0502 21.5457 73.6454" fill="#d29e17"/>
<path opacity="0.4" d="M103.947 48.8911C101.658 48.0001 99.8666 50.6738 100.464 53.2483C101.061 55.8229 106.435 58.694 106.136 68.1011C105.937 75.8247 104.245 78.9929 104.245 78.9929L100.464 74.2404C100.464 74.2404 99.8666 63.546 98.5729 61.9617C97.2796 60.3774 93.1989 57.5059 91.6067 56.0207C90.0144 54.5351 93.3978 52.5551 93.1989 49.7822C93.0001 47.109 94.8909 41.762 94.8909 41.762L103.947 48.8911Z" fill="#d29e17"/>
<path opacity="0.4" d="M117.78 91.0727C117.581 98.4988 119.273 109.49 119.969 114.739C120.666 119.986 121.562 120.383 119.969 122.759C118.377 125.037 116.287 128.799 116.287 128.799L109.42 128.205C109.42 128.205 114.894 121.274 115.192 119.986C115.491 118.7 112.406 108.897 112.406 108.897L117.78 91.0727Z" fill="#d29e17"/>
<path opacity="0.4" d="M104.544 21.7602C105.938 24.8291 107.629 26.2156 110.316 27.1071C111.908 27.7012 118.178 28.4936 120.666 25.7207C121.761 24.4334 121.064 20.9678 121.064 20.9678L115.391 25.5223L107.729 24.1364L106.833 21.8589L104.544 21.7602Z" fill="#d29e17"/>
<path d="M105.141 28.5922C107.728 30.2757 114.197 31.86 115.988 32.157C117.78 32.5527 120.666 30.2757 122.059 29.6816C123.552 28.9884 126.14 28.5922 129.125 31.2659C129.423 31.563 128.428 32.8502 128.428 32.8502C128.329 32.7511 127.731 32.7511 126.935 32.3549C126.139 31.9592 125.442 31.6617 124.248 31.7608C119.272 32.3549 118.476 34.0384 114.098 33.0476C109.719 32.0569 108.624 31.2655 104.345 31.4633" fill="#d29e17"/>
<path d="M104.245 28.8893C107.529 30.2757 113.899 31.7609 115.69 32.1571C117.481 32.5533 120.367 30.7706 121.76 29.8795C124.249 28.2952 127.433 29.5825 128.926 31.266C129.921 32.3549 130.319 33.0481 130.319 33.3452C130.319 33.7409 129.125 33.3452 129.125 33.3452C128.429 33.0481 127.632 32.9495 127.036 32.5528C126.239 32.1571 125.443 31.563 124.249 31.6617C119.273 32.2562 118.278 33.9392 113.999 32.949C109.72 31.9587 108.625 31.0676 104.047 31.3642" fill="#d29e17"/>
<path d="M88.8202 121.372C88.6213 121.174 89.0191 120.977 88.8202 120.977C87.5269 120.977 85.7353 119.986 84.7396 118.6C80.4605 112.461 74.1906 108.401 62.8456 108.698C45.8278 109.094 39.0604 102.163 37.7671 88.8948C37.0704 81.6665 35.0799 74.6361 30.9998 70.6751L28.6111 72.1607C33.1886 76.1212 34.6817 82.5576 35.677 91.3702C37.2693 104.639 48.0171 110.778 60.5566 110.976C73.5935 111.174 78.2707 113.847 83.1468 120.383C84.7391 122.462 86.5307 123.155 87.9236 123.452L88.8202 121.372Z" fill="#d29e17"/>
<path opacity="0.4" d="M134.997 57.7037C135.295 59.1888 136.091 62.0604 137.683 63.4463C138.381 64.1396 138.48 64.3374 137.883 64.3374C137.285 64.3374 132.907 64.1396 132.907 64.1396L131.712 62.0604L134.997 57.7037Z" fill="#d29e17"/>
</svg>
