<svg width="150" height="150" viewBox="0 0 150 150" fill="none" xmlns="http://www.w3.org/2000/svg">
<path d="M0 -6.10352e-05V150H150V-6.10352e-05H0ZM81.63 116.99C81.63 131.59 73.07 138.23 60.58 138.23C49.31 138.23 42.765 132.39 39.44 125.35L50.92 118.4C53.135 122.28 55.15 125.6 59.98 125.6C64.61 125.6 67.53 123.835 67.53 116.75V68.8499H81.63V116.99ZM114.96 138.23C101.87 138.23 93.41 131.99 89.285 123.83L100.76 117.195C103.78 122.085 107.71 125.745 114.66 125.745C120.495 125.745 124.175 122.825 124.175 118.765C124.175 113.935 120.345 112.215 113.905 109.44L110.405 107.89C100.235 103.565 93.49 98.1249 93.49 86.6399C93.49 76.0749 101.51 68.0149 114.13 68.0149C123.09 68.0149 129.53 71.1399 134.17 79.2849L123.22 86.3099C120.82 82.0099 118.19 80.2599 114.16 80.2599C110.04 80.2599 107.4 82.8699 107.4 86.3099C107.4 90.5699 110 92.2499 116.05 94.8599L119.565 96.4099C131.55 101.51 138.3 106.76 138.3 118.56C138.335 131.28 128.37 138.21 114.975 138.21L114.96 138.23Z" fill="#004225"/>
</svg>
